<svg xmlns="http://www.w3.org/2000/svg" viewBox="0 0 100 100" width="308.7612359841165" height="304.915625">
  <!-- Gradient definitions -->
  <defs>
    <linearGradient id="blueGradient" x1="0%" y1="0%" x2="100%" y2="100%">
      <stop offset="0%" stop-color="#1E90FF" />
      <stop offset="100%" stop-color="#000080" />
    </linearGradient>
    <linearGradient id="glowGradient" x1="0%" y1="0%" x2="100%" y2="100%">
      <stop offset="0%" stop-color="#915EFF" />
      <stop offset="100%" stop-color="#4169E1" />
    </linearGradient>
    <filter id="shadow" x="-20%" y="-20%" width="140%" height="140%">
      <feGaussianBlur stdDeviation="2" result="blur" />
      <feComposite in="SourceGraphic" in2="blur" operator="over" />
    </filter>
  </defs>
  
  <!-- Circular background with tech-style ring -->
  <circle cx="50" cy="50" r="43" fill="url(#blueGradient)" />
  <circle cx="50" cy="50" r="43" fill="none" stroke="#915EFF" stroke-width="1.5" stroke-dasharray="3,2" />
  
  <!-- Tech style ring around edge -->
  <circle cx="50" cy="50" r="46" fill="none" stroke="#915EFF" stroke-width="0.5" />
  <circle cx="50" cy="50" r="48" fill="none" stroke="#4169E1" stroke-width="0.25" />
  
  <!-- Modern S with tech style -->
  <path d="M65 34c0-10-10-17-20-17-11 0-20 7-20 16 0 8 5 13 12 15l10 3c5 1 7 4 7 8 0 5-5 8-12 8-7 0-12-3-13-9H19c1 12 11 19 26 19 14 0 26-7 26-18 0-8-5-14-16-17l-8-2c-6-2-8-4-8-8 0-4 4-7 10-7 6 0 10 3 10 7h6z" 
        fill="white" 
        filter="url(#shadow)" />
  
  <!-- Decorative code brackets [] -->
  <path d="M20 32L15 50L20 68" fill="none" stroke="#915EFF" stroke-width="1.5" />
  <path d="M80 32L85 50L80 68" fill="none" stroke="#915EFF" stroke-width="1.5" />
  
  <!-- Tech circuit lines -->
  <line x1="20" y1="32" x2="30" y2="32" stroke="#915EFF" stroke-width="0.75" />
  <line x1="20" y1="68" x2="30" y2="68" stroke="#915EFF" stroke-width="0.75" />
  <line x1="70" y1="32" x2="80" y2="32" stroke="#915EFF" stroke-width="0.75" />
  <line x1="70" y1="68" x2="80" y2="68" stroke="#915EFF" stroke-width="0.75" />
  
  <!-- Connection points -->
  <circle cx="20" cy="32" r="1.5" fill="#915EFF" />
  <circle cx="20" cy="68" r="1.5" fill="#915EFF" />
  <circle cx="80" cy="32" r="1.5" fill="#915EFF" />
  <circle cx="80" cy="68" r="1.5" fill="#915EFF" />
</svg>