<svg xmlns="http://www.w3.org/2000/svg" viewBox="0 0 100 100">
  <!-- Background circle with subtle gradient -->
  <defs>
    <radialGradient id="bgGradient" cx="50%" cy="50%" r="50%" fx="50%" fy="50%">
      <stop offset="0%" stop-color="#333" />
      <stop offset="100%" stop-color="#000" />
    </radialGradient>
    
    <!-- Glowing effect for the S -->
    <filter id="glow" x="-20%" y="-20%" width="140%" height="140%">
      <feGaussianBlur stdDeviation="2" result="blur" />
      <feComposite in="SourceGraphic" in2="blur" operator="over" />
    </filter>
  </defs>
  
  <!-- Background circle -->
  <circle cx="50" cy="50" r="48" fill="url(#bgGradient)" />
  
  <!-- Stylized S with 3D effect -->
  <g filter="url(#glow)">
    <!-- Main S shape -->
    <path d="M64.5 33.8c-1.5-3.2-4.1-5.7-7.5-7.2-3.4-1.5-7.3-2.2-11.7-2.2-4.2 0-8 0.8-11.4 2.3-3.3 1.5-5.9 3.7-7.7 6.5-1.8 2.8-2.7 6-2.7 9.5 0 3 0.7 5.6 2 7.7 1.3 2.1 3 3.8 5.1 5.2 2.1 1.4 4.4 2.5 7 3.4 2.6 0.9 5.1 1.7 7.7 2.5 2.6 0.8 5 1.6 7.1 2.5 2.1 0.9 3.8 2 5.1 3.4 1.3 1.4 2 3.2 2 5.4 0 2.1-0.6 4-1.7 5.5-1.1 1.6-2.7 2.8-4.7 3.7-2 0.9-4.3 1.3-6.9 1.3-2.7 0-5.2-0.5-7.4-1.4-2.2-0.9-3.9-2.3-5.2-4.1-1.3-1.8-2-3.9-2.1-6.4h-8.7c0.1 4.4 1.4 8.2 3.8 11.4 2.4 3.2 5.6 5.7 9.6 7.5 4 1.8 8.7 2.7 13.8 2.7 4.8 0 9.1-0.9 12.8-2.7 3.7-1.8 6.6-4.3 8.7-7.6 2.1-3.3 3.1-7.1 3.1-11.5 0-3-0.7-5.6-2-7.7-1.3-2.1-3-3.8-5.1-5.2-2.1-1.4-4.4-2.5-7-3.4-2.6-0.9-5.1-1.7-7.7-2.5-2.6-0.8-5-1.6-7.1-2.5-2.1-0.9-3.8-2-5.1-3.4-1.3-1.4-2-3.2-2-5.3 0-2 0.5-3.7 1.4-5.1 0.9-1.4 2.3-2.6 4.1-3.4 1.8-0.8 3.8-1.2 6.1-1.2 3.6 0 6.5 0.9 8.7 2.7 2.2 1.8 3.5 4.4 3.9 7.7h9.7z" fill="white" />
    
    <!-- Shadow effect -->
    <path d="M64.5 36.8c-1.5-3.2-4.1-5.7-7.5-7.2-3.4-1.5-7.3-2.2-11.7-2.2-4.2 0-8 0.8-11.4 2.3-3.3 1.5-5.9 3.7-7.7 6.5-1.8 2.8-2.7 6-2.7 9.5 0 3 0.7 5.6 2 7.7 1.3 2.1 3 3.8 5.1 5.2 2.1 1.4 4.4 2.5 7 3.4 2.6 0.9 5.1 1.7 7.7 2.5 2.6 0.8 5 1.6 7.1 2.5 2.1 0.9 3.8 2 5.1 3.4 1.3 1.4 2 3.2 2 5.4 0 2.1-0.6 4-1.7 5.5-1.1 1.6-2.7 2.8-4.7 3.7-2 0.9-4.3 1.3-6.9 1.3-2.7 0-5.2-0.5-7.4-1.4-2.2-0.9-3.9-2.3-5.2-4.1-1.3-1.8-2-3.9-2.1-6.4h-8.7c0.1 4.4 1.4 8.2 3.8 11.4 2.4 3.2 5.6 5.7 9.6 7.5 4 1.8 8.7 2.7 13.8 2.7 4.8 0 9.1-0.9 12.8-2.7 3.7-1.8 6.6-4.3 8.7-7.6 2.1-3.3 3.1-7.1 3.1-11.5 0-3-0.7-5.6-2-7.7-1.3-2.1-3-3.8-5.1-5.2-2.1-1.4-4.4-2.5-7-3.4-2.6-0.9-5.1-1.7-7.7-2.5-2.6-0.8-5-1.6-7.1-2.5-2.1-0.9-3.8-2-5.1-3.4-1.3-1.4-2-3.2-2-5.3 0-2 0.5-3.7 1.4-5.1 0.9-1.4 2.3-2.6 4.1-3.4 1.8-0.8 3.8-1.2 6.1-1.2 3.6 0 6.5 0.9 8.7 2.7 2.2 1.8 3.5 4.4 3.9 7.7h9.7z" fill="none" stroke="#aaa" stroke-width="0.5" opacity="0.8" transform="translate(2,2)" />
  </g>
  
  <!-- Lightning bolt accent -->
  <path d="M72 28L65 40L75 42L28 72L35 60L25 58L72 28Z" fill="white" opacity="0.15" />
  
  <!-- Circular border with tech-inspired breaks -->
  <path d="M50 2A48 48 0 0 1 98 50" stroke="white" stroke-width="1" fill="none" />
  <path d="M98 50A48 48 0 0 1 50 98" stroke="white" stroke-width="1" fill="none" />
  <path d="M50 98A48 48 0 0 1 2 50" stroke="white" stroke-width="1" fill="none" />
  <path d="M2 50A48 48 0 0 1 50 2" stroke="white" stroke-width="1" fill="none" />
  
  <!-- Digital circuit accent lines -->
  <path d="M15 50H5M95 50H85M50 15V5M50 95V85" stroke="white" stroke-width="0.5" opacity="0.6" />
</svg>